<?xml version="1.0" encoding="UTF-8"?>
<svg id="Calque_1" data-name="Calque 1" xmlns="http://www.w3.org/2000/svg" viewBox="0 0 1420 476.09">
  <defs>
    <style>
      @import url('https://fonts.googleapis.com/css2?family=Hanken+Grotesk:wght@800&amp;display=swap');
      .cls-1 {
        fill-rule: evenodd;
      }
      .meet-text {
        font-family: 'Hanken Grotesk', 'HK Grotesk', sans-serif;
        font-weight: 800;
        font-size: 220px;
        fill: #0F1010;
      }
    </style>
  </defs>
  <path d="M506.16,16.28c8.05-.97,23.23,1.48,31.32,3.02,75.95,14.44,128.89,85.86,127.42,161.97-.27,13.79-3.4,25.41-6.15,38.7,4.79,3.18,8.24,5.46,9.02,11.64,1.05,8.26.71,16.85.71,25.2,0,11.03.34,22.1.09,33.11,12.85-8.49,27.76-13.34,43.15-14.01,23.25-.72,45.82,7.83,62.77,23.76,57.6,53.67,17.38,150.81-60.27,152.17-23.95.43-47.11-8.62-64.42-25.18-11.5-10.95-19.73-24.88-23.78-40.24-3.85-14.74-2.81-32.49-2.82-48.01.08-17.94.01-35.87-.19-53.81-10.82,12.59-26,24.73-40.01,33.66,14.02,23.39,17.23,47.56,9.1,73.77-7.35,22.94-23.48,42.04-44.86,53.13-2.64,1.29-5.54,2.61-8.27,3.65-20.82,7.86-43.92,7.06-64.15-2.2-21.32-9.78-37.89-27.63-46.05-49.63-8.79-23.45-7.09-49.01,3.21-71.66-19.8-12.76-30.34-20.53-46.4-38.68,1.56,2.75,3.74,6.42,3.85,9.59.58,16.46-.19,33-.22,49.45l.07,54.99c.04,9.52.32,19.21.06,28.72-.77,28.06-42.28,29.16-44.32,1.09-.53-7.2-.22-14.9-.21-22.17v-38.58s-.03-45.3-.03-45.3c0-8.52,0-16.93.14-25.57.31-18.52,22.64-28.2,36.66-16.43,1.1.93,2.73,3.41,3.79,3.81-.77-2.03-6.57-9.44-8.21-11.7-8.37-11.54-13.21-23.33-18.56-36.39-5.36,16.2-22.49,23.21-37.05,13.18-16.76-11.54-9.16-41.61,11.75-43.08,8.7-.61,13.15,1.39,19.68,6.78-1.64-7.77-2.61-14.54-3.01-22.48-2.39-47.22,11.31-91.11,43.51-126.25,22.29-24.33,50.35-40.51,82.93-47.13,9.38-1.91,20.12-2.54,29.75-2.91ZM522.32,46.54c-8.61.55-16.37,1.06-24.84,3-66.95,15.29-107.16,77.34-102.87,143.95,2.66,35.89,19.43,69.28,46.62,92.85,24.03,20.72,52.48,30.03,83.95,30.15,120.71-6.87,170.28-157.47,82.49-237.58-22.74-20.75-54.46-33.18-85.35-32.37ZM715.97,405.26c22.94-1.1,40.67-20.53,39.68-43.47-.99-22.94-20.33-40.77-43.27-39.9-23.11.88-41.1,20.39-40.1,43.49.99,23.11,20.59,40.99,43.69,39.88ZM477.61,341.63c-4.55,7.61-7.04,12.61-7.81,21.59-1.23,14.23,5.85,29.01,17.9,36.89,9.23,5.99,20.45,8.1,31.23,5.89,30.15-5.98,44.08-44.67,20.35-67.53-.29-.28-.62-.19-1-.18-14.36,3.92-46.51,7.74-60.66,3.34Z"/>
  <path d="M204.78,216.49c.14-.02.28-.03.42-.05,21.88-1.56,43.45,5.82,59.78,20.46,30.7,27.69,27.68,55.59,27.69,92.71l.16,57.34c-.03,9.17,0,18.34.09,27.51.08,10.33,1.58,21.76-6.2,29.87-8.35,8.71-23.53,8.95-32.01.36-2.9-2.97-4.97-6.65-6-10.67-1.47-5.51-1.06-16.01-1.05-22.05l-.02-23.82c-9.59-.62-21.61-.26-31.38-.23l-45.17.07.07,28.09c.02,4.46.34,12.07-.37,16.22-.55,3.34-1.85,6.51-3.81,9.27-7.17,10.18-21.87,12.22-31.66,4.7-10.44-8.01-8.62-20.06-8.6-31.5v-30.38s-.06-58.52-.06-58.52c0-13.9-1.22-32.67,1.96-45.69,9.05-36.98,39.78-60.13,76.15-63.72ZM170.95,341.77c14.55-.12,29.1-.16,43.65-.12,10.87,0,22.35-.17,33.17.09-.73-12.29,1.25-43.9-1.57-53.82-1.93-6.61-5.68-12.54-10.81-17.12-6.74-6.06-22.08-12.33-31.05-9.84-10.33,1.4-19.43,5.86-25.82,14.3-3.33,4.44-5.65,9.55-6.8,14.98-1.36,6.64-.54,12.17-.62,18.72-.13,10.2.76,22.82-.16,32.82Z"/>
  <path d="M846.06,277.79c5.34-.18,8.89-.19,13.86,2.43,10.92,5.77,11.64,15.66,11.49,26.62-.09,6.38,0,12.95,0,19.33l-.07,49.07-.02,34.01c.06,17,3.62,35.82-17.76,41.05-5.08.95-10.32.15-14.88-2.29-15.33-8.28-10.36-24.07-11.24-38.47-.13-2.15,0-4.54,0-6.72l.06-51.86c0-10.62-.05-21.25-.16-31.87-.15-17.89-3.55-36.03,18.69-41.3Z"/>
  <path d="M847.97,214.83c13.05-1.02,24.46,8.73,25.48,21.79,1.02,13.05-8.74,24.46-21.79,25.48-13.05,1.02-24.46-8.74-25.48-21.79-1.02-13.05,8.73-24.46,21.79-25.48Z"/>
  <g>
    <path class="cls-1" d="M461.7,153.32v57.14l21.96,10.98c3.01,1.5,6.55-.68,6.55-4.05v-71c0-3.36-3.54-5.55-6.55-4.05l-21.96,10.98Z"/>
    <path class="cls-1" d="M556.65,153.32v57.14l21.96,10.98c3.01,1.5,6.55-.68,6.55-4.05v-71c0-3.36-3.54-5.55-6.55-4.05l-21.96,10.98Z"/>
  </g>
  <text class="meet-text" x="930" y="440">Meet</text>
</svg>