<?xml version="1.0" encoding="utf-8"?>
<svg xmlns="http://www.w3.org/2000/svg" viewBox="0 0 500 500">
  <g id="svg2">
    <desc>Source: openclipart.org/detail/209545</desc>
  </g>
  <g id="svg-1" transform="matrix(1, 0, 0, 1, -325.710332, -34.650063)">
    <desc>Source: openclipart.org/detail/209545</desc>
    <g transform="matrix(2.945058, 0, 0, 2.790564, 431.020545, 120.871729)" style="">
      <path fill-rule="evenodd" clip-rule="evenodd" d="M50 0C22.4 0 0 22.4 0 50C0 77.6 22.4 100 50 100C77.6 100 100 77.6 100 50C100 22.4 77.6 0 50 0ZM54 10C31.9 10 14 27.9 14 50C14 72.1 31.9 90 54 90C76.1 90 94 72.1 94 50C94 27.9 76.1 10 54 10Z" fill="#000000"/>
      <rect x="35" y="38" width="10" height="24" rx="5" fill="#000000"/>
      <rect x="63" y="38" width="10" height="24" rx="5" fill="#000000"/>
    </g>
    <rect x="517.607" y="410.324" width="86.28" height="75.514" rx="4" fill="#000000" style="stroke-width: 1;"/>
    <polygon points="606.53 426.175 651.607 403.41 651.607 486.887 606.53 464.117" fill="#000000" style="stroke-width: 1;"/>
  </g>
</svg>