<?xml version="1.0" encoding="UTF-8"?>
<svg id="Calque_1" data-name="Calque 1" xmlns="http://www.w3.org/2000/svg" viewBox="0 0 490.38 476.09">
  <defs>
    <style>
      .cls-1 {
        fill-rule: evenodd;
      }
    </style>
  </defs>
  <path d="M224.83,8.19c126.79-9.82,237.61,84.83,247.69,211.56,10.09,126.73-84.35,237.71-211.1,248.06-127.13,10.39-238.55-84.37-248.67-211.49C2.63,129.22,97.66,18.04,224.83,8.19ZM276.95,440.22c108.12-6.53,190.45-99.48,183.86-207.56-6.59-108.08-99.61-190.34-207.72-183.7-108.04,6.64-190.25,99.54-183.67,207.55,6.59,108,99.48,190.24,207.52,183.71Z"/>
  <path class="cls-1" d="M174.73,208.29v75.95l29.19,14.59c4,2,8.7-.91,8.7-5.38v-94.37c0-4.47-4.7-7.38-8.7-5.38l-29.19,14.59Z"/>
  <path class="cls-1" d="M318.15,205.38v75.95l29.19,14.59c4,2,8.7-.91,8.7-5.38v-94.37c0-4.47-4.7-7.38-8.7-5.38l-29.19,14.59Z"/>
</svg>